OFF
849 1694 0
-0.0000000040 -2.0000000000 -0.0740070671
0.3999999960 -0.0000000000 -6.9284070671
0.2493959960 0.3127330000 -6.9284070671
-1.2175200040 -1.5867100000 3.5979929329
-0.3603880040 0.1735530000 -6.9284070671
0.9999999960 -1.7320500000 -0.0740070671
0.4384089960 -1.1170500000 6.2091929329
0.2493959960 -0.3127330000 -6.9284070671
1.7320499960 -1.0000000000 -0.0740070671
0.6254649960 0.4987920000 -6.6428070671
1.9318499960 -0.5176380000 -0.0740070671
-0.0000000040 0.8000000000 -6.6428070671
-0.3471070040 0.7207750000 -6.6428070671
1.8724699960 0.7027500000 5.6379929329
0.2610519960 -1.9828900000 3.5979929329
-0.7799420040 -0.1780170000 -6.6428070671
-0.6254650040 -0.4987920000 -6.6428070671
1.5867099960 1.2175200000 0.3339929329
0.7653669960 -1.8477600000 3.5979929329
0.3471069960 -0.7207750000 -6.6428070671
0.6254649960 -0.4987920000 -6.6428070671
0.7653669960 1.8477600000 0.3339929329
1.1999999960 -0.0000000000 -6.3572070671
0.2610519960 1.9828900000 0.3339929329
0.9914869960 0.6759840000 -6.3572070671
1.7168999960 1.0258000000 5.6379929329
0.4384089960 1.1170500000 -6.3572070671
-0.7653670040 1.8477600000 0.3339929329
-0.2670250040 1.1699100000 -6.3572070671
1.5867099960 -1.2175200000 3.5979929329
-0.8796620040 0.8162070000 -6.3572070671
-1.5867100040 1.2175200000 0.3339929329
-0.1791430040 -1.5899400000 5.9235929329
-1.1866000040 -0.1788510000 -6.3572070671
-1.0811600040 -0.5206600000 -6.3572070671
-1.9828900040 0.2610520000 0.3339929329
0.7481879960 -0.9381980000 6.2091929329
-0.2670250040 -1.1699100000 -6.3572070671
1.9999999960 -0.0000000000 4.0059929329
0.4384089960 -1.1170500000 -6.3572070671
0.7481879960 -0.9381980000 -6.3572070671
-1.5867100040 -1.2175200000 0.3339929329
-1.2175200040 -1.5867100000 0.3339929329
1.5899399960 0.1791430000 -6.0716070671
1.5102099960 0.5284460000 -6.0716070671
1.9318499960 0.5176380000 4.0059929329
1.1313699960 1.1313700000 -6.0716070671
-0.2610520040 -1.9828900000 0.3339929329
0.9477369960 1.7611900000 5.6379929329
0.1791429960 1.5899400000 -6.0716070671
-0.1791430040 1.5899400000 -6.0716070671
1.4142099960 1.4142100000 4.0059929329
-0.8512510040 1.3547600000 -6.0716070671
1.2175199960 -1.5867100000 0.3339929329
-1.3547600040 0.8512510000 -6.0716070671
1.5867099960 -1.2175200000 0.3339929329
0.6180339960 1.9021100000 5.6379929329
-1.5899400040 -0.1791430000 -6.0716070671
-1.5102100040 -0.5284460000 -6.0716070671
1.9828899960 -0.2610520000 0.3339929329
-1.1313700040 -1.1313700000 -6.0716070671
0.5284459960 -1.5102100000 5.9235929329
-0.5284460040 -1.5102100000 -6.0716070671
-0.0000000040 2.0000000000 4.0059929329
0.1791429960 -1.5899400000 -6.0716070671
1.7320499960 1.0000000000 0.7419929329
0.8512509960 -1.3547600000 -6.0716070671
-0.0897297040 1.9979900000 5.6379929329
0.9999999960 1.7320500000 0.7419929329
1.5102099960 -0.5284460000 -6.0716070671
1.5899399960 -0.1791430000 -6.0716070671
-1.0000000040 1.7320500000 4.0059929329
1.9318499960 0.5176380000 -5.7860070671
-0.0000000040 2.0000000000 0.7419929329
1.4142099960 1.4142100000 -5.7860070671
-1.4142100040 1.4142100000 4.0059929329
-1.0000000040 1.7320500000 0.7419929329
-0.0000000040 2.0000000000 -5.7860070671
-0.5176380040 1.9318500000 -5.7860070671
-0.0890084040 0.3899710000 6.7803929329
-1.4142100040 1.4142100000 -5.7860070671
-1.7320500040 1.0000000000 0.7419929329
-1.9318500040 0.5176380000 -5.7860070671
-1.9318500040 0.5176380000 0.7419929329
-1.9318500040 -0.5176380000 -5.7860070671
-1.9318500040 0.5176380000 4.0059929329
-1.4142100040 -1.4142100000 -5.7860070671
0.2493959960 -0.3127330000 6.7803929329
-1.7320500040 -1.0000000000 0.7419929329
-0.0000000040 -2.0000000000 -5.7860070671
0.5176379960 -1.9318500000 -5.7860070671
-1.9318500040 -0.5176380000 4.0059929329
1.4142099960 -1.4142100000 -5.7860070671
-1.0000000040 -1.7320500000 0.7419929329
1.9318499960 -0.5176380000 -5.7860070671
-0.5176380040 -1.9318500000 0.7419929329
-1.1017900040 1.6691500000 5.6379929329
1.5867099960 1.2175200000 -5.3780070671
-1.3821300040 1.4455900000 5.6379929329
0.7653669960 1.8477600000 -5.3780070671
0.9999999960 -1.7320500000 0.7419929329
-0.2610520040 1.9828900000 -5.3780070671
-0.7653670040 1.8477600000 -5.3780070671
1.4142099960 -1.4142100000 0.7419929329
-1.5867100040 1.2175200000 -5.3780070671
-1.0000000040 -1.7320500000 4.0059929329
-1.9828900040 0.2610520000 -5.3780070671
1.9318499960 -0.5176380000 0.7419929329
-0.5176380040 -1.9318500000 4.0059929329
-1.5867100040 -1.2175200000 -5.3780070671
-1.2175200040 -1.5867100000 -5.3780070671
1.3547599960 -0.8512510000 5.9235929329
1.5867099960 1.2175200000 1.1499929329
0.2610519960 -1.9828900000 -5.3780070671
0.7653669960 -1.8477600000 -5.3780070671
1.2175199960 1.5867100000 1.1499929329
1.5867099960 -1.2175200000 -5.3780070671
0.5176379960 -1.9318500000 4.0059929329
-1.8019400040 0.8677670000 5.6379929329
1.9999999960 -0.0000000000 -4.9700070671
-0.2610520040 1.9828900000 1.1499929329
1.7320499960 1.0000000000 -4.9700070671
1.4142099960 -1.4142100000 4.0059929329
0.9999999960 1.7320500000 -4.9700070671
0.5176379960 1.9318500000 -4.9700070671
-1.2175200040 1.5867100000 1.1499929329
-1.5867100040 1.2175200000 1.1499929329
-1.0000000040 1.7320500000 -4.9700070671
0.7799419960 0.1780170000 6.4947929329
-1.7320500040 1.0000000000 -4.9700070671
-1.9318500040 0.5176380000 -4.9700070671
1.9318499960 -0.5176380000 4.0059929329
-1.9828900040 -0.2610520000 1.1499929329
-1.7320500040 -1.0000000000 -4.9700070671
-1.4142100040 -1.4142100000 -4.9700070671
-1.8477600040 -0.7653670000 1.1499929329
-0.5176380040 -1.9318500000 -4.9700070671
1.5899399960 -0.1791430000 5.9235929329
-1.9919500040 -0.1792790000 5.6379929329
0.9999999960 -1.7320500000 -4.9700070671
1.4142099960 -1.4142100000 -4.9700070671
-0.7653670040 -1.8477600000 1.1499929329
1.9318499960 -0.5176380000 -4.9700070671
1.5867099960 1.2175200000 4.4139929329
1.8477599960 0.7653670000 -4.5620070671
0.2610519960 -1.9828900000 1.1499929329
1.2175199960 1.5867100000 -4.5620070671
0.7653669960 -1.8477600000 1.1499929329
0.2610519960 1.9828900000 -4.5620070671
-1.9279300040 -0.5320740000 5.6379929329
1.5867099960 -1.2175200000 1.1499929329
-1.2175200040 1.5867100000 -4.5620070671
0.7653669960 1.8477600000 4.4139929329
-1.8477600040 0.7653670000 -4.5620070671
0.2610519960 1.9828900000 4.4139929329
-1.9828900040 -0.2610520000 -4.5620070671
1.9999999960 -0.0000000000 1.5579929329
-1.5867100040 -1.2175200000 -4.5620070671
1.9318499960 0.5176380000 1.5579929329
-0.7653670040 -1.8477600000 -4.5620070671
0.6254649960 -0.4987920000 6.4947929329
0.2610519960 -1.9828900000 -4.5620070671
1.1466899960 0.3537060000 6.2091929329
1.2175199960 -1.5867100000 -4.5620070671
0.9999999960 1.7320500000 1.5579929329
1.8477599960 -0.7653670000 -4.5620070671
-1.2175200040 1.5867100000 4.4139929329
1.9999999960 -0.0000000000 -4.1540070671
1.9318499960 0.5176380000 -4.1540070671
-0.0000000040 2.0000000000 1.5579929329
1.4142099960 1.4142100000 -4.1540070671
-0.5176380040 1.9318500000 1.5579929329
-1.3821300040 -1.4455900000 5.6379929329
-0.0000000040 2.0000000000 -4.1540070671
-1.4142100040 1.4142100000 1.5579929329
-1.0000000040 1.7320500000 -4.1540070671
-1.8477600040 0.7653670000 4.4139929329
-1.7320500040 1.0000000000 -4.1540070671
-1.9318500040 0.5176380000 -4.1540070671
-1.1017900040 -1.6691500000 5.6379929329
-1.9318500040 -0.5176380000 -4.1540070671
-2.0000000040 0.0000000000 1.5579929329
-1.4142100040 -1.4142100000 -4.1540070671
-1.9318500040 -0.5176380000 1.5579929329
-0.5176380040 -1.9318500000 -4.1540070671
-1.9828900040 -0.2610520000 4.4139929329
0.5176379960 -1.9318500000 -4.1540070671
-1.4142100040 -1.4142100000 1.5579929329
0.9914869960 0.6759840000 6.2091929329
1.7320499960 -1.0000000000 -4.1540070671
-0.5176380040 -1.9318500000 1.5579929329
1.9828899960 0.2610520000 -3.7460070671
1.8477599960 0.7653670000 -3.7460070671
-1.5867100040 -1.2175200000 4.4139929329
-1.2175200040 -1.5867100000 4.4139929329
0.7653669960 1.8477600000 -3.7460070671
0.9999999960 -1.7320500000 1.5579929329
-0.2610520040 1.9828900000 -3.7460070671
-0.7653670040 1.8477600000 -3.7460070671
1.4142099960 -1.4142100000 1.5579929329
-1.5867100040 1.2175200000 -3.7460070671
0.3471069960 0.7207750000 6.4947929329
-0.0897297040 -1.9979900000 5.6379929329
-1.9828900040 -0.2610520000 -3.7460070671
-1.8477600040 -0.7653670000 -3.7460070671
1.9828899960 0.2610520000 1.9659929329
0.2610519960 -1.9828900000 4.4139929329
-0.7653670040 -1.8477600000 -3.7460070671
1.5867099960 1.2175200000 1.9659929329
0.2610519960 -1.9828900000 -3.7460070671
0.7653669960 -1.8477600000 -3.7460070671
1.2175199960 1.5867100000 1.9659929329
1.5867099960 -1.2175200000 -3.7460070671
0.7653669960 -1.8477600000 4.4139929329
1.9828899960 -0.2610520000 -3.7460070671
0.4384089960 1.1170500000 6.2091929329
1.9318499960 0.5176380000 -3.3380070671
-0.2610520040 1.9828900000 1.9659929329
1.5867099960 -1.2175200000 4.4139929329
0.9999999960 1.7320500000 -3.3380070671
-1.2175200040 1.5867100000 1.9659929329
-0.0000000040 2.0000000000 -3.3380070671
-0.5176380040 1.9318500000 -3.3380070671
0.6180339960 -1.9021100000 5.6379929329
-1.4142100040 1.4142100000 -3.3380070671
-1.8477600040 0.7653670000 1.9659929329
1.9828899960 -0.2610520000 4.4139929329
-2.0000000040 0.0000000000 -3.3380070671
-1.9318500040 -0.5176380000 -3.3380070671
-1.9828900040 -0.2610520000 1.9659929329
-1.4142100040 -1.4142100000 -3.3380070671
-1.8477600040 -0.7653670000 1.9659929329
-0.5176380040 -1.9318500000 -3.3380070671
0.9477369960 -1.7611900000 5.6379929329
-0.0000000040 0.8000000000 6.4947929329
0.9999999960 -1.7320500000 -3.3380070671
-0.7653670040 -1.8477600000 1.9659929329
1.7320499960 -1.0000000000 -3.3380070671
1.9318499960 -0.5176380000 -3.3380070671
-0.2610520040 -1.9828900000 1.9659929329
1.7320499960 1.0000000000 4.8219929329
1.5867099960 1.2175200000 -2.9300070671
1.5061399960 -1.3158800000 5.6379929329
0.7653669960 1.8477600000 -2.9300070671
1.2175199960 -1.5867100000 1.9659929329
-0.2610520040 1.9828900000 -2.9300070671
-0.7653670040 1.8477600000 -2.9300070671
0.9999999960 1.7320500000 4.8219929329
1.8477599960 -0.7653670000 1.9659929329
-1.8477600040 0.7653670000 -2.9300070671
-1.9828900040 0.2610520000 -2.9300070671
0.7799419960 -0.1780170000 6.4947929329
1.9999999960 -0.0000000000 2.3739929329
-1.5867100040 -1.2175200000 -2.9300070671
-1.2175200040 -1.5867100000 -2.9300070671
1.9318499960 0.5176380000 2.3739929329
-0.2610520040 -1.9828900000 -2.9300070671
-0.0000000040 2.0000000000 4.8219929329
0.7653669960 -1.8477600000 -2.9300070671
-0.6000000040 1.0392300000 6.2091929329
1.5867099960 -1.2175200000 -2.9300070671
0.9999999960 1.7320500000 2.3739929329
1.9828899960 -0.2610520000 -2.9300070671
-1.0000000040 1.7320500000 4.8219929329
1.9318499960 0.5176380000 -2.5220070671
-0.0000000040 2.0000000000 2.3739929329
-0.5176380040 1.9318500000 2.3739929329
0.9999999960 1.7320500000 -2.5220070671
0.5176379960 1.9318500000 -2.5220070671
-1.4142100040 1.4142100000 4.8219929329
1.9678599960 -0.3571140000 5.6379929329
-1.0000000040 1.7320500000 -2.5220070671
-1.7320500040 1.0000000000 2.3739929329
-1.7320500040 1.0000000000 -2.5220070671
-0.8796620040 0.8162070000 6.2091929329
-2.0000000040 0.0000000000 -2.5220070671
-2.0000000040 0.0000000000 2.3739929329
-1.7320500040 -1.0000000000 -2.5220070671
-2.0000000040 0.0000000000 4.8219929329
-1.0000000040 -1.7320500000 -2.5220070671
-1.7320500040 -1.0000000000 2.3739929329
-0.0000000040 -2.0000000000 -2.5220070671
-1.9318500040 -0.5176380000 4.8219929329
0.9999999960 -1.7320500000 -2.5220070671
1.4142099960 -1.4142100000 -2.5220070671
-1.0000000040 -1.7320500000 2.3739929329
1.5102099960 0.5284460000 5.9235929329
1.9828899960 0.2610520000 -2.1140070671
1.8477599960 0.7653670000 -2.1140070671
-0.0000000040 -2.0000000000 2.3739929329
1.2175199960 1.5867100000 -2.1140070671
-1.4142100040 -1.4142100000 4.8219929329
0.9999999960 -1.7320500000 2.3739929329
-0.2610520040 1.9828900000 -2.1140070671
1.4142099960 -1.4142100000 2.3739929329
-1.2175200040 1.5867100000 -2.1140070671
-0.6254650040 0.4987920000 6.4947929329
-1.8477600040 0.7653670000 -2.1140070671
-1.9828900040 0.2610520000 -2.1140070671
-0.5176380040 -1.9318500000 4.8219929329
-1.8477600040 -0.7653670000 -2.1140070671
1.9828899960 0.2610520000 2.7819929329
1.1313699960 1.1313700000 5.9235929329
-0.7653670040 -1.8477600000 -2.1140070671
-0.2610520040 -1.9828900000 -2.1140070671
1.5867099960 1.2175200000 2.7819929329
0.7653669960 -1.8477600000 -2.1140070671
0.5176379960 -1.9318500000 4.8219929329
0.7653669960 1.8477600000 2.7819929329
1.8477599960 -0.7653670000 -2.1140070671
0.2610519960 1.9828900000 2.7819929329
1.9999999960 -0.0000000000 -1.7060070671
1.9318499960 0.5176380000 -1.7060070671
-1.1866000040 0.1788510000 6.2091929329
1.4142099960 1.4142100000 -1.7060070671
1.4142099960 -1.4142100000 4.8219929329
-1.2175200040 1.5867100000 2.7819929329
-0.0000000040 2.0000000000 -1.7060070671
-1.5867100040 1.2175200000 2.7819929329
-1.0000000040 1.7320500000 -1.7060070671
0.5284459960 1.5102100000 5.9235929329
-1.7320500040 1.0000000000 -1.7060070671
-1.9318500040 0.5176380000 -1.7060070671
-1.9828900040 0.2610520000 2.7819929329
-1.9318500040 -0.5176380000 -1.7060070671
0.1791429960 1.5899400000 5.9235929329
-1.8477600040 -0.7653670000 2.7819929329
-1.0000000040 -1.7320500000 -1.7060070671
1.9828899960 0.2610520000 5.2299929329
-0.0000000040 -2.0000000000 -1.7060070671
-1.2175200040 -1.5867100000 2.7819929329
0.9999999960 -1.7320500000 -1.7060070671
1.8477599960 0.7653670000 5.2299929329
1.7320499960 -1.0000000000 -1.7060070671
-0.2610520040 -1.9828900000 2.7819929329
1.9828899960 0.2610520000 -1.2980070671
1.8477599960 0.7653670000 -1.2980070671
-0.3603880040 -0.1735530000 6.7803929329
1.2175199960 1.5867100000 -1.2980070671
1.2175199960 1.5867100000 5.2299929329
0.2610519960 1.9828900000 -1.2980070671
1.2175199960 -1.5867100000 2.7819929329
-0.7653670040 1.8477600000 -1.2980070671
1.5867099960 -1.2175200000 2.7819929329
-1.5867100040 1.2175200000 -1.2980070671
-0.5284460040 1.5102100000 5.9235929329
-0.0000000040 -0.0000000000 6.8517929329
-1.9828900040 -0.2610520000 -1.2980070671
1.9999999960 -0.0000000000 3.1899929329
-1.5867100040 -1.2175200000 -1.2980070671
-0.2610520040 1.9828900000 5.2299929329
-0.7653670040 -1.8477600000 -1.2980070671
1.7320499960 1.0000000000 3.1899929329
0.2610519960 -1.9828900000 -1.2980070671
0.7653669960 -1.8477600000 -1.2980070671
1.4142099960 1.4142100000 3.1899929329
1.5867099960 -1.2175200000 -1.2980070671
-0.7653670040 1.8477600000 5.2299929329
1.9828899960 -0.2610520000 -1.2980070671
0.5176379960 1.9318500000 3.1899929329
1.9318499960 0.5176380000 -0.8900070671
-0.8796620040 -0.8162070000 6.2091929329
1.4142099960 1.4142100000 -0.8900070671
-0.5176380040 1.9318500000 3.1899929329
-1.5867100040 1.2175200000 5.2299929329
-0.0000000040 2.0000000000 -0.8900070671
-1.4142100040 1.4142100000 3.1899929329
-1.0000000040 1.7320500000 -0.8900070671
-1.4142100040 1.4142100000 -0.8900070671
-1.3547600040 0.8512510000 5.9235929329
-1.5102100040 0.5284460000 5.9235929329
-2.0000000040 0.0000000000 -0.8900070671
-2.0000000040 0.0000000000 3.1899929329
-1.7320500040 -1.0000000000 -0.8900070671
-1.9318500040 -0.5176380000 3.1899929329
-1.0000000040 -1.7320500000 -0.8900070671
-0.5176380040 -1.9318500000 -0.8900070671
-1.9828900040 -0.2610520000 5.2299929329
-0.6000000040 -1.0392300000 6.2091929329
0.9999999960 -1.7320500000 -0.8900070671
1.4142099960 -1.4142100000 -0.8900070671
-1.0000000040 -1.7320500000 3.1899929329
-0.5176380040 -1.9318500000 3.1899929329
1.9828899960 0.2610520000 -0.4820070671
-1.5867100040 -1.2175200000 5.2299929329
1.5867099960 1.2175200000 -0.4820070671
1.2175199960 1.5867100000 -0.4820070671
-1.2175200040 -1.5867100000 5.2299929329
0.2610519960 1.9828900000 -0.4820070671
0.9999999960 -1.7320500000 3.1899929329
1.4142099960 -1.4142100000 3.1899929329
-1.2175200040 1.5867100000 -0.4820070671
-0.6254650040 -0.4987920000 6.4947929329
-1.8477600040 0.7653670000 -0.4820070671
-1.9828900040 0.2610520000 -0.4820070671
-0.2610520040 -1.9828900000 5.2299929329
1.9828899960 0.2610520000 3.5979929329
-1.5867100040 -1.2175200000 -0.4820070671
-1.5102100040 -0.5284460000 5.9235929329
-0.7653670040 -1.8477600000 -0.4820070671
-0.2610520040 -1.9828900000 -0.4820070671
1.5867099960 1.2175200000 3.5979929329
0.7653669960 -1.8477600000 -0.4820070671
1.2175199960 1.5867100000 3.5979929329
1.5867099960 -1.2175200000 -0.4820070671
0.7653669960 -1.8477600000 5.2299929329
1.9828899960 -0.2610520000 -0.4820070671
-1.3547600040 -0.8512510000 5.9235929329
-0.2610520040 1.9828900000 3.5979929329
1.7320499960 1.0000000000 -0.0740070671
-0.7653670040 1.8477600000 3.5979929329
0.9999999960 1.7320500000 -0.0740070671
1.5867099960 -1.2175200000 5.2299929329
-0.0000000040 2.0000000000 -0.0740070671
-0.5176380040 1.9318500000 -0.0740070671
-1.5867100040 1.2175200000 3.5979929329
-0.3471070040 -0.7207750000 6.4947929329
-1.7320500040 1.0000000000 -0.0740070671
-1.9318500040 0.5176380000 -0.0740070671
-1.9828900040 0.2610520000 3.5979929329
-1.9318500040 -0.5176380000 -0.0740070671
1.9828899960 -0.2610520000 5.2299929329
-1.4142100040 -1.4142100000 -0.0740070671
-1.8477600040 -0.7653670000 3.5979929329
-0.8512510040 -1.3547600000 5.9235929329
-0.0000000040 -0.0000000000 -6.9998070671
-0.0890084040 0.3899710000 -6.9284070671
-0.3603880040 -0.1735530000 -6.9284070671
-0.0890084040 -0.3899710000 -6.9284070671
0.7799419960 0.1780170000 -6.6428070671
0.3471069960 0.7207750000 -6.6428070671
-0.6254650040 0.4987920000 -6.6428070671
-0.7799420040 0.1780170000 -6.6428070671
-0.3471070040 -0.7207750000 -6.6428070671
-0.0000000040 -0.8000000000 -6.6428070671
0.7799419960 -0.1780170000 -6.6428070671
1.1466899960 0.3537060000 -6.3572070671
0.7481879960 0.9381980000 -6.3572070671
0.0896760960 1.1966400000 -6.3572070671
-0.6000000040 1.0392300000 -6.3572070671
-1.0811600040 0.5206600000 -6.3572070671
-1.1866000040 0.1788510000 -6.3572070671
-0.8796620040 -0.8162070000 -6.3572070671
-0.6000000040 -1.0392300000 -6.3572070671
0.0896760960 -1.1966400000 -6.3572070671
0.9914869960 -0.6759840000 -6.3572070671
1.1466899960 -0.3537060000 -6.3572070671
1.3547599960 0.8512510000 -6.0716070671
0.8512509960 1.3547600000 -6.0716070671
0.5284459960 1.5102100000 -6.0716070671
-0.5284460040 1.5102100000 -6.0716070671
-1.1313700040 1.1313700000 -6.0716070671
-1.5102100040 0.5284460000 -6.0716070671
-1.5899400040 0.1791430000 -6.0716070671
-1.3547600040 -0.8512510000 -6.0716070671
-0.8512510040 -1.3547600000 -6.0716070671
-0.1791430040 -1.5899400000 -6.0716070671
0.5284459960 -1.5102100000 -6.0716070671
1.1313699960 -1.1313700000 -6.0716070671
1.3547599960 -0.8512510000 -6.0716070671
1.9999999960 -0.0000000000 -5.7860070671
1.7320499960 1.0000000000 -5.7860070671
0.9999999960 1.7320500000 -5.7860070671
0.5176379960 1.9318500000 -5.7860070671
-1.0000000040 1.7320500000 -5.7860070671
-1.7320500040 1.0000000000 -5.7860070671
-2.0000000040 0.0000000000 -5.7860070671
-1.7320500040 -1.0000000000 -5.7860070671
-1.0000000040 -1.7320500000 -5.7860070671
-0.5176380040 -1.9318500000 -5.7860070671
0.9999999960 -1.7320500000 -5.7860070671
1.7320499960 -1.0000000000 -5.7860070671
1.9828899960 0.2610520000 -5.3780070671
1.8477599960 0.7653670000 -5.3780070671
1.2175199960 1.5867100000 -5.3780070671
0.2610519960 1.9828900000 -5.3780070671
-1.2175200040 1.5867100000 -5.3780070671
-1.8477600040 0.7653670000 -5.3780070671
-1.9828900040 -0.2610520000 -5.3780070671
-1.8477600040 -0.7653670000 -5.3780070671
-0.7653670040 -1.8477600000 -5.3780070671
-0.2610520040 -1.9828900000 -5.3780070671
1.2175199960 -1.5867100000 -5.3780070671
1.8477599960 -0.7653670000 -5.3780070671
1.9828899960 -0.2610520000 -5.3780070671
1.9318499960 0.5176380000 -4.9700070671
1.4142099960 1.4142100000 -4.9700070671
-0.0000000040 2.0000000000 -4.9700070671
-0.5176380040 1.9318500000 -4.9700070671
-1.4142100040 1.4142100000 -4.9700070671
-2.0000000040 0.0000000000 -4.9700070671
-1.9318500040 -0.5176380000 -4.9700070671
-1.0000000040 -1.7320500000 -4.9700070671
-0.0000000040 -2.0000000000 -4.9700070671
0.5176379960 -1.9318500000 -4.9700070671
1.7320499960 -1.0000000000 -4.9700070671
1.9828899960 0.2610520000 -4.5620070671
1.5867099960 1.2175200000 -4.5620070671
0.7653669960 1.8477600000 -4.5620070671
-0.2610520040 1.9828900000 -4.5620070671
-0.7653670040 1.8477600000 -4.5620070671
-1.5867100040 1.2175200000 -4.5620070671
-1.9828900040 0.2610520000 -4.5620070671
-1.8477600040 -0.7653670000 -4.5620070671
-1.2175200040 -1.5867100000 -4.5620070671
-0.2610520040 -1.9828900000 -4.5620070671
0.7653669960 -1.8477600000 -4.5620070671
1.5867099960 -1.2175200000 -4.5620070671
1.9828899960 -0.2610520000 -4.5620070671
1.7320499960 1.0000000000 -4.1540070671
0.9999999960 1.7320500000 -4.1540070671
0.5176379960 1.9318500000 -4.1540070671
-0.5176380040 1.9318500000 -4.1540070671
-1.4142100040 1.4142100000 -4.1540070671
-2.0000000040 0.0000000000 -4.1540070671
-1.7320500040 -1.0000000000 -4.1540070671
-1.0000000040 -1.7320500000 -4.1540070671
-0.0000000040 -2.0000000000 -4.1540070671
0.9999999960 -1.7320500000 -4.1540070671
1.4142099960 -1.4142100000 -4.1540070671
1.9318499960 -0.5176380000 -4.1540070671
1.5867099960 1.2175200000 -3.7460070671
1.2175199960 1.5867100000 -3.7460070671
0.2610519960 1.9828900000 -3.7460070671
-1.2175200040 1.5867100000 -3.7460070671
-1.8477600040 0.7653670000 -3.7460070671
-1.9828900040 0.2610520000 -3.7460070671
-1.5867100040 -1.2175200000 -3.7460070671
-1.2175200040 -1.5867100000 -3.7460070671
-0.2610520040 -1.9828900000 -3.7460070671
1.2175199960 -1.5867100000 -3.7460070671
1.8477599960 -0.7653670000 -3.7460070671
1.9999999960 -0.0000000000 -3.3380070671
1.7320499960 1.0000000000 -3.3380070671
1.4142099960 1.4142100000 -3.3380070671
0.5176379960 1.9318500000 -3.3380070671
-1.0000000040 1.7320500000 -3.3380070671
-1.7320500040 1.0000000000 -3.3380070671
-1.9318500040 0.5176380000 -3.3380070671
-1.7320500040 -1.0000000000 -3.3380070671
-1.0000000040 -1.7320500000 -3.3380070671
-0.0000000040 -2.0000000000 -3.3380070671
0.5176379960 -1.9318500000 -3.3380070671
1.4142099960 -1.4142100000 -3.3380070671
1.9828899960 0.2610520000 -2.9300070671
1.8477599960 0.7653670000 -2.9300070671
1.2175199960 1.5867100000 -2.9300070671
0.2610519960 1.9828900000 -2.9300070671
-1.2175200040 1.5867100000 -2.9300070671
-1.5867100040 1.2175200000 -2.9300070671
-1.9828900040 -0.2610520000 -2.9300070671
-1.8477600040 -0.7653670000 -2.9300070671
-0.7653670040 -1.8477600000 -2.9300070671
0.2610519960 -1.9828900000 -2.9300070671
1.2175199960 -1.5867100000 -2.9300070671
1.8477599960 -0.7653670000 -2.9300070671
1.9999999960 -0.0000000000 -2.5220070671
1.7320499960 1.0000000000 -2.5220070671
1.4142099960 1.4142100000 -2.5220070671
-0.0000000040 2.0000000000 -2.5220070671
-0.5176380040 1.9318500000 -2.5220070671
-1.4142100040 1.4142100000 -2.5220070671
-1.9318500040 0.5176380000 -2.5220070671
-1.9318500040 -0.5176380000 -2.5220070671
-1.4142100040 -1.4142100000 -2.5220070671
-0.5176380040 -1.9318500000 -2.5220070671
0.5176379960 -1.9318500000 -2.5220070671
1.7320499960 -1.0000000000 -2.5220070671
1.9318499960 -0.5176380000 -2.5220070671
1.5867099960 1.2175200000 -2.1140070671
0.7653669960 1.8477600000 -2.1140070671
0.2610519960 1.9828900000 -2.1140070671
-0.7653670040 1.8477600000 -2.1140070671
-1.5867100040 1.2175200000 -2.1140070671
-1.9828900040 -0.2610520000 -2.1140070671
-1.5867100040 -1.2175200000 -2.1140070671
-1.2175200040 -1.5867100000 -2.1140070671
0.2610519960 -1.9828900000 -2.1140070671
1.2175199960 -1.5867100000 -2.1140070671
1.5867099960 -1.2175200000 -2.1140070671
1.9828899960 -0.2610520000 -2.1140070671
1.7320499960 1.0000000000 -1.7060070671
0.9999999960 1.7320500000 -1.7060070671
0.5176379960 1.9318500000 -1.7060070671
-0.5176380040 1.9318500000 -1.7060070671
-1.4142100040 1.4142100000 -1.7060070671
-2.0000000040 0.0000000000 -1.7060070671
-1.7320500040 -1.0000000000 -1.7060070671
-1.4142100040 -1.4142100000 -1.7060070671
-0.5176380040 -1.9318500000 -1.7060070671
0.5176379960 -1.9318500000 -1.7060070671
1.4142099960 -1.4142100000 -1.7060070671
1.9318499960 -0.5176380000 -1.7060070671
1.5867099960 1.2175200000 -1.2980070671
0.7653669960 1.8477600000 -1.2980070671
-0.2610520040 1.9828900000 -1.2980070671
-1.2175200040 1.5867100000 -1.2980070671
-1.8477600040 0.7653670000 -1.2980070671
-1.9828900040 0.2610520000 -1.2980070671
-1.8477600040 -0.7653670000 -1.2980070671
-1.2175200040 -1.5867100000 -1.2980070671
-0.2610520040 -1.9828900000 -1.2980070671
1.2175199960 -1.5867100000 -1.2980070671
1.8477599960 -0.7653670000 -1.2980070671
1.9999999960 -0.0000000000 -0.8900070671
1.7320499960 1.0000000000 -0.8900070671
0.9999999960 1.7320500000 -0.8900070671
0.5176379960 1.9318500000 -0.8900070671
-0.5176380040 1.9318500000 -0.8900070671
-1.7320500040 1.0000000000 -0.8900070671
-1.9318500040 0.5176380000 -0.8900070671
-1.9318500040 -0.5176380000 -0.8900070671
-1.4142100040 -1.4142100000 -0.8900070671
-0.0000000040 -2.0000000000 -0.8900070671
0.5176379960 -1.9318500000 -0.8900070671
1.7320499960 -1.0000000000 -0.8900070671
1.9318499960 -0.5176380000 -0.8900070671
1.8477599960 0.7653670000 -0.4820070671
0.7653669960 1.8477600000 -0.4820070671
-0.2610520040 1.9828900000 -0.4820070671
-0.7653670040 1.8477600000 -0.4820070671
-1.5867100040 1.2175200000 -0.4820070671
-1.9828900040 -0.2610520000 -0.4820070671
-1.8477600040 -0.7653670000 -0.4820070671
-1.2175200040 -1.5867100000 -0.4820070671
0.2610519960 -1.9828900000 -0.4820070671
1.2175199960 -1.5867100000 -0.4820070671
1.8477599960 -0.7653670000 -0.4820070671
1.9999999960 -0.0000000000 -0.0740070671
1.9318499960 0.5176380000 -0.0740070671
1.4142099960 1.4142100000 -0.0740070671
0.5176379960 1.9318500000 -0.0740070671
-1.0000000040 1.7320500000 -0.0740070671
-1.4142100040 1.4142100000 -0.0740070671
-2.0000000040 0.0000000000 -0.0740070671
-1.7320500040 -1.0000000000 -0.0740070671
-1.0000000040 -1.7320500000 -0.0740070671
-0.5176380040 -1.9318500000 -0.0740070671
0.5176379960 -1.9318500000 -0.0740070671
1.4142099960 -1.4142100000 -0.0740070671
1.9828899960 0.2610520000 0.3339929329
1.8477599960 0.7653670000 0.3339929329
1.2175199960 1.5867100000 0.3339929329
-0.2610520040 1.9828900000 0.3339929329
-1.2175200040 1.5867100000 0.3339929329
-1.8477600040 0.7653670000 0.3339929329
-1.9828900040 -0.2610520000 0.3339929329
-1.8477600040 -0.7653670000 0.3339929329
-0.7653670040 -1.8477600000 0.3339929329
0.2610519960 -1.9828900000 0.3339929329
0.7653669960 -1.8477600000 0.3339929329
1.8477599960 -0.7653670000 0.3339929329
1.9999999960 -0.0000000000 0.7419929329
1.9318499960 0.5176380000 0.7419929329
1.4142099960 1.4142100000 0.7419929329
0.5176379960 1.9318500000 0.7419929329
-0.5176380040 1.9318500000 0.7419929329
-1.4142100040 1.4142100000 0.7419929329
-2.0000000040 0.0000000000 0.7419929329
-1.9318500040 -0.5176380000 0.7419929329
-1.4142100040 -1.4142100000 0.7419929329
-0.0000000040 -2.0000000000 0.7419929329
0.5176379960 -1.9318500000 0.7419929329
1.7320499960 -1.0000000000 0.7419929329
1.9828899960 0.2610520000 1.1499929329
1.8477599960 0.7653670000 1.1499929329
0.7653669960 1.8477600000 1.1499929329
0.2610519960 1.9828900000 1.1499929329
-0.7653670040 1.8477600000 1.1499929329
-1.8477600040 0.7653670000 1.1499929329
-1.9828900040 0.2610520000 1.1499929329
-1.5867100040 -1.2175200000 1.1499929329
-1.2175200040 -1.5867100000 1.1499929329
-0.2610520040 -1.9828900000 1.1499929329
1.2175199960 -1.5867100000 1.1499929329
1.8477599960 -0.7653670000 1.1499929329
1.9828899960 -0.2610520000 1.1499929329
1.7320499960 1.0000000000 1.5579929329
1.4142099960 1.4142100000 1.5579929329
0.5176379960 1.9318500000 1.5579929329
-1.0000000040 1.7320500000 1.5579929329
-1.7320500040 1.0000000000 1.5579929329
-1.9318500040 0.5176380000 1.5579929329
-1.7320500040 -1.0000000000 1.5579929329
-1.0000000040 -1.7320500000 1.5579929329
-0.0000000040 -2.0000000000 1.5579929329
0.5176379960 -1.9318500000 1.5579929329
1.7320499960 -1.0000000000 1.5579929329
1.9318499960 -0.5176380000 1.5579929329
1.8477599960 0.7653670000 1.9659929329
0.7653669960 1.8477600000 1.9659929329
0.2610519960 1.9828900000 1.9659929329
-0.7653670040 1.8477600000 1.9659929329
-1.5867100040 1.2175200000 1.9659929329
-1.9828900040 0.2610520000 1.9659929329
-1.5867100040 -1.2175200000 1.9659929329
-1.2175200040 -1.5867100000 1.9659929329
0.2610519960 -1.9828900000 1.9659929329
0.7653669960 -1.8477600000 1.9659929329
1.5867099960 -1.2175200000 1.9659929329
1.9828899960 -0.2610520000 1.9659929329
1.7320499960 1.0000000000 2.3739929329
1.4142099960 1.4142100000 2.3739929329
0.5176379960 1.9318500000 2.3739929329
-1.0000000040 1.7320500000 2.3739929329
-1.4142100040 1.4142100000 2.3739929329
-1.9318500040 0.5176380000 2.3739929329
-1.9318500040 -0.5176380000 2.3739929329
-1.4142100040 -1.4142100000 2.3739929329
-0.5176380040 -1.9318500000 2.3739929329
0.5176379960 -1.9318500000 2.3739929329
1.7320499960 -1.0000000000 2.3739929329
1.9318499960 -0.5176380000 2.3739929329
1.8477599960 0.7653670000 2.7819929329
1.2175199960 1.5867100000 2.7819929329
-0.2610520040 1.9828900000 2.7819929329
-0.7653670040 1.8477600000 2.7819929329
-1.8477600040 0.7653670000 2.7819929329
-1.9828900040 -0.2610520000 2.7819929329
-1.5867100040 -1.2175200000 2.7819929329
-0.7653670040 -1.8477600000 2.7819929329
0.2610519960 -1.9828900000 2.7819929329
0.7653669960 -1.8477600000 2.7819929329
1.8477599960 -0.7653670000 2.7819929329
1.9828899960 -0.2610520000 2.7819929329
1.9318499960 0.5176380000 3.1899929329
0.9999999960 1.7320500000 3.1899929329
-0.0000000040 2.0000000000 3.1899929329
-1.0000000040 1.7320500000 3.1899929329
-1.7320500040 1.0000000000 3.1899929329
-1.9318500040 0.5176380000 3.1899929329
-1.7320500040 -1.0000000000 3.1899929329
-1.4142100040 -1.4142100000 3.1899929329
-0.0000000040 -2.0000000000 3.1899929329
0.5176379960 -1.9318500000 3.1899929329
1.7320499960 -1.0000000000 3.1899929329
1.9318499960 -0.5176380000 3.1899929329
1.8477599960 0.7653670000 3.5979929329
0.7653669960 1.8477600000 3.5979929329
0.2610519960 1.9828900000 3.5979929329
-1.2175200040 1.5867100000 3.5979929329
-1.8477600040 0.7653670000 3.5979929329
-1.9828900040 -0.2610520000 3.5979929329
-1.5867100040 -1.2175200000 3.5979929329
-0.7653670040 -1.8477600000 3.5979929329
-0.2610520040 -1.9828900000 3.5979929329
1.2175199960 -1.5867100000 3.5979929329
1.8477599960 -0.7653670000 3.5979929329
1.9828899960 -0.2610520000 3.5979929329
1.7320499960 1.0000000000 4.0059929329
0.9999999960 1.7320500000 4.0059929329
0.5176379960 1.9318500000 4.0059929329
-0.5176380040 1.9318500000 4.0059929329
-1.7320500040 1.0000000000 4.0059929329
-2.0000000040 0.0000000000 4.0059929329
-1.7320500040 -1.0000000000 4.0059929329
-1.4142100040 -1.4142100000 4.0059929329
-0.0000000040 -2.0000000000 4.0059929329
0.9999999960 -1.7320500000 4.0059929329
1.7320499960 -1.0000000000 4.0059929329
1.9828899960 0.2610520000 4.4139929329
1.8477599960 0.7653670000 4.4139929329
1.2175199960 1.5867100000 4.4139929329
-0.2610520040 1.9828900000 4.4139929329
-0.7653670040 1.8477600000 4.4139929329
-1.5867100040 1.2175200000 4.4139929329
-1.9828900040 0.2610520000 4.4139929329
-1.8477600040 -0.7653670000 4.4139929329
-0.7653670040 -1.8477600000 4.4139929329
-0.2610520040 -1.9828900000 4.4139929329
1.2175199960 -1.5867100000 4.4139929329
1.8477599960 -0.7653670000 4.4139929329
1.9999999960 -0.0000000000 4.8219929329
1.9318499960 0.5176380000 4.8219929329
1.4142099960 1.4142100000 4.8219929329
0.5176379960 1.9318500000 4.8219929329
-0.5176380040 1.9318500000 4.8219929329
-1.7320500040 1.0000000000 4.8219929329
-1.9318500040 0.5176380000 4.8219929329
-1.7320500040 -1.0000000000 4.8219929329
-1.0000000040 -1.7320500000 4.8219929329
-0.0000000040 -2.0000000000 4.8219929329
0.9999999960 -1.7320500000 4.8219929329
1.7320499960 -1.0000000000 4.8219929329
1.9318499960 -0.5176380000 4.8219929329
1.5867099960 1.2175200000 5.2299929329
0.7653669960 1.8477600000 5.2299929329
0.2610519960 1.9828900000 5.2299929329
-1.2175200040 1.5867100000 5.2299929329
-1.8477600040 0.7653670000 5.2299929329
-1.9828900040 0.2610520000 5.2299929329
-1.8477600040 -0.7653670000 5.2299929329
-0.7653670040 -1.8477600000 5.2299929329
0.2610519960 -1.9828900000 5.2299929329
1.2175199960 -1.5867100000 5.2299929329
1.8477599960 -0.7653670000 5.2299929329
1.9999999960 -0.0000000000 5.6379929329
1.9678599960 0.3571140000 5.6379929329
1.5061399960 1.3158800000 5.6379929329
1.2469799960 1.5636600000 5.6379929329
0.2684669960 1.9819000000 5.6379929329
-0.4450420040 1.9498600000 5.6379929329
-0.7860500040 1.8390600000 5.6379929329
-1.6180300040 1.1755700000 5.6379929329
-1.9279300040 0.5320740000 5.6379929329
-1.9919500040 0.1792790000 5.6379929329
-1.8019400040 -0.8677670000 5.6379929329
-1.6180300040 -1.1755700000 5.6379929329
-0.7860500040 -1.8390600000 5.6379929329
-0.4450420040 -1.9498600000 5.6379929329
0.2684669960 -1.9819000000 5.6379929329
1.2469799960 -1.5636600000 5.6379929329
1.7168999960 -1.0258000000 5.6379929329
1.8724699960 -0.7027500000 5.6379929329
1.5899399960 0.1791430000 5.9235929329
1.3547599960 0.8512510000 5.9235929329
0.8512509960 1.3547600000 5.9235929329
-0.1791430040 1.5899400000 5.9235929329
-0.8512510040 1.3547600000 5.9235929329
-1.1313700040 1.1313700000 5.9235929329
-1.5899400040 0.1791430000 5.9235929329
-1.5899400040 -0.1791430000 5.9235929329
-1.1313700040 -1.1313700000 5.9235929329
-0.5284460040 -1.5102100000 5.9235929329
0.1791429960 -1.5899400000 5.9235929329
0.8512509960 -1.3547600000 5.9235929329
1.1313699960 -1.1313700000 5.9235929329
1.5102099960 -0.5284460000 5.9235929329
1.1999999960 -0.0000000000 6.2091929329
0.7481879960 0.9381980000 6.2091929329
0.0896760960 1.1966400000 6.2091929329
-0.2670250040 1.1699100000 6.2091929329
-1.0811600040 0.5206600000 6.2091929329
-1.1866000040 -0.1788510000 6.2091929329
-1.0811600040 -0.5206600000 6.2091929329
-0.2670250040 -1.1699100000 6.2091929329
0.0896760960 -1.1966400000 6.2091929329
0.9914869960 -0.6759840000 6.2091929329
1.1466899960 -0.3537060000 6.2091929329
0.6254649960 0.4987920000 6.4947929329
-0.3471070040 0.7207750000 6.4947929329
-0.7799420040 0.1780170000 6.4947929329
-0.7799420040 -0.1780170000 6.4947929329
-0.0000000040 -0.8000000000 6.4947929329
0.3471069960 -0.7207750000 6.4947929329
0.3999999960 -0.0000000000 6.7803929329
0.2493959960 0.3127330000 6.7803929329
-0.3603880040 0.1735530000 6.7803929329
-0.0890084040 -0.3899710000 6.7803929329
3 220 174 680
3 371 611 347
3 159 492 504
3 183 132 181
3 183 181 229
3 565 552 279
3 565 279 303
3 611 371 622
3 310 727 715
3 715 265 310
3 367 608 620
3 620 608 619
3 100 147 674
3 147 100 662
3 525 538 526
3 181 682 694
3 639 8 404
3 626 639 404
3 463 49 449
3 29 390 746
3 122 29 746
3 437 26 430
3 437 448 26
3 484 119 472
3 60 86 455
3 105 108 744
3 745 744 108
3 269 263 788
3 428 433 434
3 620 632 391
3 391 367 620
3 717 729 730
3 730 729 741
3 663 103 150
3 103 663 55
3 780 768 194
3 194 768 105
3 516 159 504
3 41 647 88
3 635 647 41
3 74 448 46
3 141 93 672
3 109 467 479
3 633 644 31
3 644 657 31
3 229 231 183
3 601 589 351
3 351 376 601
3 77 50 49
3 61 836 6
3 765 75 166
3 427 425 4
3 540 552 232
3 232 552 256
3 606 607 594
3 594 607 340
3 669 681 682
3 682 681 225
3 660 42 41
3 41 42 422
3 511 173 148
3 311 312 287
3 398 806 149
3 149 806 791
3 368 367 391
3 143 240 774
3 45 396 38
3 639 5 53
3 426 4 425
3 540 528 230
3 230 254 540
3 325 830 817
3 204 228 539
3 551 539 228
3 539 551 253
3 635 623 420
3 635 420 647
3 823 378 835
3 678 677 208
3 677 678 112
3 660 41 88
3 614 354 353
3 613 614 353
3 185 766 278
3 504 492 134
3 134 492 110
3 373 623 397
3 623 373 611
3 589 327 351
3 552 540 254
3 86 110 468
3 792 179 808
3 832 370 369
3 452 453 441
3 453 452 82
3 308 261 714
3 745 733 382
3 733 334 382
3 489 476 127
3 172 387 384
3 786 339 48
3 797 328 796
3 337 847 346
3 593 336 605
3 362 593 605
3 589 601 329
3 589 329 304
3 550 250 275
3 250 550 227
3 224 536 548
3 250 562 275
3 562 298 275
3 382 334 720
3 720 381 382
3 624 612 397
3 536 224 524
3 84 478 479
3 491 479 478
3 479 133 109
3 538 250 227
3 776 257 350
3 717 272 318
3 729 717 318
3 144 121 485
3 477 106 82
3 182 504 157
3 504 134 157
3 443 442 60
3 374 372 742
3 372 374 718
3 797 796 814
3 419 742 372
3 83 35 645
3 384 387 291
3 753 85 741
3 683 671 135
3 135 671 88
3 32 809 823
3 823 808 424
3 823 424 378
3 823 835 32
3 763 764 752
3 752 764 71
3 15 16 427
3 34 16 15
3 532 216 191
3 425 427 428
3 427 433 428
3 695 708 696
3 415 729 366
3 729 415 741
3 205 156 700
3 118 804 789
3 804 118 370
3 649 0 47
3 47 661 649
3 676 107 675
3 675 688 676
3 809 808 823
3 653 640 652
3 653 652 664
3 574 324 300
3 138 377 805
3 724 736 348
3 787 775 786
3 68 115 666
3 164 666 115
3 671 187 672
3 581 288 312
3 686 147 145
3 686 145 685
3 376 613 601
3 342 595 608
3 608 367 342
3 84 467 58
3 551 277 253
3 277 551 563
3 422 635 41
3 422 397 635
3 439 431 12
3 431 439 30
3 811 794 233
3 833 313 841
3 380 379 626
3 379 380 602
3 276 323 718
3 323 372 718
3 503 491 155
3 427 4 15
3 621 391 633
3 316 704 716
3 157 133 503
3 157 503 515
3 624 375 612
3 612 375 600
3 791 779 282
3 564 277 575
3 564 253 277
3 611 373 599
3 4 431 432
3 164 115 678
3 610 597 609
3 609 393 610
3 588 327 576
3 588 600 327
3 316 728 366
3 78 101 102
3 609 621 393
3 417 393 621
3 407 822 807
3 559 571 293
3 293 571 317
3 454 34 58
3 441 440 452
3 440 441 432
3 391 621 368
3 198 536 524
3 510 195 511
3 195 523 511
3 224 200 524
3 125 76 668
3 61 233 223
3 281 553 256
3 256 553 541
3 651 10 8
3 10 627 8
3 475 99 124
3 592 309 333
3 603 592 333
3 279 564 576
3 254 564 279
3 820 833 821
3 43 72 44
3 600 375 351
3 351 327 600
3 680 171 692
3 171 680 668
3 415 740 75
3 83 670 658
3 670 132 658
3 50 77 78
3 211 702 261
3 702 714 261
3 33 58 34
3 383 360 604
3 79 234 201
3 253 254 230
3 253 564 254
3 254 279 552
3 55 663 651
3 55 651 8
3 228 550 551
3 750 51 762
3 615 380 404
3 380 615 356
3 31 81 645
3 31 645 417
3 326 718 374
3 718 326 707
3 557 569 558
3 558 241 557
3 256 552 565
3 627 404 8
3 759 747 29
3 747 735 29
3 362 606 338
3 700 156 688
3 15 33 34
3 459 471 69
3 78 77 101
3 359 308 726
3 308 359 310
3 748 38 396
3 378 416 835
3 632 633 391
3 433 443 37
3 443 62 37
3 607 606 618
3 618 388 607
3 523 173 511
3 469 456 62
3 37 62 456
3 381 330 732
3 336 312 335
3 335 360 336
3 95 93 141
3 648 93 95
3 683 695 187
3 307 793 405
3 65 653 665
3 274 819 259
3 447 74 46
3 447 46 24
3 50 28 438
3 337 842 847
3 847 842 841
3 268 547 243
3 547 535 243
3 365 595 340
3 365 608 595
3 172 179 387
3 336 593 581
3 285 330 720
3 330 381 720
3 464 52 450
3 413 631 23
3 760 773 761
3 761 45 760
3 716 704 266
3 266 704 692
3 476 102 127
3 746 758 122
3 131 38 748
3 767 185 282
3 185 767 91
3 161 493 505
3 46 448 437
3 257 776 763
3 774 762 143
3 654 642 17
3 748 396 348
3 522 195 510
3 665 677 112
3 71 166 75
3 75 740 71
3 151 489 127
3 794 412 315
3 341 294 292
3 730 372 323
3 582 583 570
3 582 594 583
3 468 469 62
3 417 621 633
3 31 417 633
3 73 23 655
3 700 252 205
3 720 334 709
3 641 17 409
3 17 630 409
3 763 776 764
3 202 395 809
3 768 780 299
3 299 780 792
3 663 107 651
3 651 107 59
3 117 213 758
3 213 770 758
3 299 792 395
3 788 96 98
3 98 96 819
3 843 836 835
3 835 416 843
3 605 385 362
3 659 88 647
3 185 754 766
3 95 47 648
3 349 588 587
3 587 588 575
3 300 277 563
3 575 277 300
3 412 242 812
3 180 514 203
3 514 180 155
3 18 758 746
3 117 758 18
3 701 689 255
3 205 255 689
3 723 712 711
3 724 712 723
3 589 303 327
3 303 589 304
3 60 455 443
3 147 662 145
3 661 145 662
3 145 661 673
3 353 601 613
3 160 837 36
3 826 36 837
3 24 436 447
3 436 44 447
3 811 242 794
3 811 826 242
3 204 539 527
3 527 515 204
3 425 7 1
3 304 565 303
3 211 261 690
3 533 192 216
3 74 97 474
3 367 368 596
3 628 10 59
3 10 628 406
3 468 480 469
3 447 461 74
3 713 701 255
3 425 428 7
3 493 136 505
3 113 481 493
3 113 89 481
3 109 133 134
3 134 133 157
3 555 237 260
3 442 443 433
3 284 554 283
3 283 578 284
3 532 262 544
3 482 140 116
3 455 468 62
3 515 527 182
3 515 182 157
3 130 477 129
3 262 555 568
3 555 262 238
3 109 110 86
3 86 468 455
3 283 566 306
3 566 283 258
3 785 774 240
3 594 582 338
3 606 594 338
3 189 212 531
3 127 500 151
3 151 500 175
3 503 133 491
3 133 479 491
3 177 525 178
3 177 178 153
3 480 110 492
3 110 480 468
3 172 807 822
3 808 809 792
3 502 514 155
3 502 155 490
3 456 469 89
3 186 209 210
3 209 542 210
3 89 90 64
3 113 90 89
3 467 454 58
3 467 109 86
3 54 80 465
3 104 465 80
3 134 110 109
3 373 349 599
3 230 528 527
3 528 182 527
3 155 180 503
3 599 347 611
3 321 344 597
3 597 344 609
3 488 487 499
3 481 89 469
3 11 28 12
3 11 12 426
3 84 58 57
3 58 33 57
3 513 175 524
3 418 645 35
3 203 204 180
3 431 440 432
3 204 515 180
3 433 16 442
3 180 515 503
3 561 549 548
3 548 549 224
3 648 636 42
3 526 538 227
3 806 398 407
3 466 106 478
3 439 52 30
3 86 454 467
3 322 586 298
3 78 450 50
3 16 433 427
3 130 106 477
3 295 561 271
3 271 561 548
3 322 298 297
3 297 298 562
3 105 756 194
3 3 756 105
3 84 479 467
3 4 432 15
3 502 130 153
3 222 198 197
3 536 198 222
3 452 54 465
3 682 181 670
3 86 60 454
3 512 175 500
3 499 512 500
3 16 34 442
3 442 34 454
3 26 11 430
3 26 438 11
3 241 558 546
3 534 241 546
3 60 442 454
3 136 159 505
3 493 481 136
3 474 462 74
3 448 74 462
3 62 443 455
3 432 33 15
3 184 159 516
3 159 184 505
3 458 459 445
3 481 480 136
3 480 481 469
3 207 528 540
3 787 786 56
3 496 144 485
3 348 736 748
3 446 20 445
3 505 517 161
3 433 37 434
3 482 92 470
3 207 184 516
3 529 517 184
3 184 517 505
3 207 529 184
3 207 516 528
3 470 114 482
3 28 450 439
3 439 450 52
3 571 583 317
3 534 533 241
3 533 545 241
3 528 516 182
3 541 529 232
3 232 256 541
3 755 91 767
3 193 755 767
3 492 159 136
3 492 136 480
3 686 697 698
3 697 686 685
3 339 774 785
3 339 785 798
3 281 565 304
3 256 565 281
3 92 459 458
3 516 504 182
3 399 376 375
3 375 376 351
3 742 419 754
3 64 456 89
3 170 521 522
3 2 425 1
3 556 580 287
3 20 446 435
3 232 207 540
3 529 207 232
3 402 638 5
3 638 650 5
3 625 400 0
3 625 613 400
3 271 548 246
3 246 548 536
3 196 199 674
3 399 637 400
3 399 400 376
3 342 584 595
3 319 584 342
3 399 375 624
3 636 399 624
3 574 298 586
3 298 574 275
3 598 610 371
3 635 397 623
3 376 400 613
3 623 611 622
3 587 599 349
3 106 466 82
3 178 525 526
3 313 833 820
3 179 792 387
3 387 792 780
3 684 696 236
3 696 285 236
3 399 636 637
3 300 563 574
3 688 156 676
3 347 586 598
3 300 324 587
3 599 587 324
3 524 175 198
3 575 300 587
3 561 573 273
3 273 573 297
3 596 342 367
3 342 596 319
3 569 314 290
3 290 558 569
3 609 368 621
3 368 609 344
3 2 9 430
3 9 437 430
3 93 660 672
3 42 660 93
3 231 683 183
3 231 695 683
3 349 612 600
3 349 600 588
3 200 224 537
3 224 549 537
3 781 299 395
3 272 225 693
3 693 705 272
3 349 373 612
3 373 397 612
3 622 420 623
3 422 624 397
3 513 501 151
3 151 501 489
3 476 104 80
3 230 527 539
3 230 539 253
3 477 465 104
3 477 104 129
3 249 273 562
3 562 273 297
3 278 282 185
3 551 550 563
3 622 394 634
3 705 693 220
3 811 825 826
3 377 790 805
3 790 377 278
3 83 81 669
3 645 81 83
3 488 127 102
3 500 127 488
3 709 239 236
3 709 236 285
3 204 203 228
3 821 398 149
3 282 377 791
3 537 249 538
3 537 538 525
3 371 394 622
3 791 377 149
3 731 326 374
3 731 719 326
3 324 586 347
3 489 129 104
3 489 501 129
3 514 178 526
3 52 80 451
3 324 347 599
3 586 324 574
3 88 659 135
3 780 291 387
3 28 11 438
3 732 330 719
3 23 631 21
3 21 631 411
3 846 201 839
3 839 201 829
3 806 384 791
3 187 684 672
3 187 696 684
3 85 754 419
3 85 766 754
3 491 478 490
3 834 842 392
3 369 370 118
3 160 251 838
3 705 220 704
3 282 278 377
3 822 424 179
3 576 303 279
3 221 523 535
3 535 547 221
3 576 564 575
3 394 393 418
3 393 394 610
3 572 295 271
3 327 303 576
3 576 575 588
3 199 196 244
3 648 42 93
3 293 560 559
3 646 35 658
3 694 229 181
3 35 83 658
3 42 636 422
3 636 624 422
3 199 699 687
3 199 687 150
3 314 338 582
3 740 728 410
3 740 410 71
3 710 698 697
3 697 289 710
3 285 720 709
3 646 634 35
3 717 323 706
3 839 128 845
3 0 637 47
3 400 637 0
3 231 707 280
3 280 707 326
3 390 343 341
3 343 294 341
3 819 803 98
3 719 330 708
3 276 706 323
3 716 266 715
3 637 636 648
3 685 239 697
3 285 708 330
3 285 696 708
3 47 637 648
3 475 101 77
3 475 487 101
3 95 141 673
3 382 381 744
3 744 745 382
3 743 3 732
3 724 301 252
3 202 809 32
3 105 768 108
3 792 809 395
3 141 672 684
3 63 751 154
3 717 730 323
3 476 464 102
3 141 190 673
3 684 190 141
3 95 661 47
3 95 673 661
3 769 299 781
3 769 108 768
3 723 343 735
3 604 360 335
3 381 732 3
3 658 659 646
3 769 757 108
3 757 745 108
3 390 735 343
3 390 29 735
3 685 190 239
3 673 190 685
3 848 392 337
3 848 416 392
3 707 231 229
3 782 213 307
3 740 415 366
3 836 61 824
3 380 356 602
3 808 179 424
3 822 361 378
3 131 748 747
3 759 131 747
3 236 190 684
3 239 190 236
3 229 694 276
3 716 715 363
3 668 120 171
3 120 668 656
3 239 709 289
3 289 709 334
3 194 291 780
3 280 695 231
3 723 735 736
3 724 723 736
3 423 742 91
3 346 848 337
3 774 247 762
3 700 712 252
3 353 329 601
3 59 107 652
3 652 107 676
3 768 299 769
3 672 660 671
3 742 423 374
3 361 392 416
3 819 96 818
3 744 3 105
3 3 744 381
3 842 833 841
3 257 154 775
3 787 257 775
3 724 348 301
3 756 755 193
3 755 756 743
3 647 420 646
3 118 803 369
3 730 419 372
3 833 842 834
3 149 138 821
3 779 791 384
3 291 779 384
3 755 743 423
3 423 91 755
3 88 671 660
3 806 807 384
3 807 172 384
3 807 806 407
3 282 779 767
3 244 292 294
3 193 194 756
3 778 176 777
3 843 416 848
3 377 138 149
3 291 194 193
3 833 398 821
3 361 822 407
3 172 822 179
3 840 296 274
3 274 296 832
3 847 79 346
3 630 385 409
3 274 259 840
3 728 316 716
3 378 424 822
3 834 407 398
3 361 407 834
3 833 834 398
3 840 79 847
3 782 794 315
3 315 770 782
3 392 361 834
3 767 779 193
3 416 378 361
3 115 654 112
3 115 112 678
3 707 229 276
3 842 337 392
3 836 32 835
3 394 371 610
3 706 272 717
3 225 272 706
3 706 276 694
3 743 756 3
3 695 696 187
3 280 719 708
3 743 732 731
3 731 732 719
3 193 779 291
3 683 135 183
3 683 187 671
3 215 816 829
3 316 705 704
3 280 708 695
3 280 326 719
3 181 132 670
3 620 619 414
3 414 632 620
3 659 658 132
3 727 739 408
3 63 408 739
3 374 423 731
3 423 743 731
3 754 91 742
3 754 185 91
3 777 789 778
3 647 646 659
3 135 659 132
3 135 132 183
3 586 322 598
3 573 321 297
3 538 249 250
3 249 562 250
3 693 225 681
3 174 693 681
3 420 634 646
3 634 420 622
3 33 453 57
3 718 707 276
3 585 344 321
3 98 803 364
3 694 682 225
3 225 706 694
3 388 619 365
3 619 388 413
3 147 196 674
3 318 366 729
3 670 83 669
3 669 682 670
3 831 830 234
3 419 741 85
3 777 269 364
3 819 274 369
3 166 71 764
3 166 764 263
3 763 154 257
3 63 154 763
3 741 419 730
3 274 832 369
3 369 803 819
3 805 820 138
3 821 138 820
3 753 176 85
3 415 753 741
3 643 27 414
3 643 656 27
3 632 414 27
3 692 217 266
3 820 805 804
3 174 126 125
3 778 789 790
3 788 263 357
3 788 357 96
3 841 296 847
3 840 847 296
3 296 841 832
3 345 831 259
3 259 831 840
3 348 725 301
3 680 174 125
3 825 36 826
3 408 752 410
3 410 752 71
3 410 363 408
3 269 777 765
3 166 269 765
3 827 137 270
3 778 278 766
3 286 815 25
3 325 320 830
3 721 289 334
3 202 32 824
3 370 832 313
3 832 841 313
3 176 778 766
3 766 85 176
3 63 763 752
3 804 370 820
3 98 364 788
3 598 371 347
3 245 222 221
3 221 222 197
3 176 765 777
3 765 176 753
3 753 415 75
3 765 753 75
3 790 278 778
3 363 410 728
3 805 790 804
3 789 804 790
3 820 370 313
3 788 364 269
3 383 629 617
3 383 617 360
3 289 697 239
3 57 453 466
3 259 819 818
3 269 166 263
3 740 366 728
3 364 789 777
3 118 364 803
3 789 364 118
3 357 350 801
3 259 818 345
3 357 802 96
3 750 403 51
3 680 125 668
3 345 818 802
3 733 14 734
3 734 14 18
3 783 795 784
3 784 771 783
3 776 350 357
3 735 747 736
3 817 801 67
3 801 817 345
3 406 627 10
3 627 406 616
3 818 96 802
3 350 67 801
3 715 266 265
3 321 573 585
3 63 752 408
3 631 618 411
3 258 283 554
3 73 656 643
3 23 73 643
3 363 727 408
3 357 801 802
3 802 801 345
3 345 817 831
3 669 81 126
3 681 669 126
3 403 726 355
3 328 772 421
3 363 728 716
3 87 346 845
3 737 401 352
3 401 355 352
3 357 263 776
3 68 655 21
3 655 68 666
3 148 498 511
3 124 498 148
3 701 305 702
3 701 702 208
3 633 632 644
3 703 310 265
3 691 703 265
3 293 317 584
3 776 263 764
3 100 103 53
3 674 103 100
3 145 673 685
3 350 787 67
3 631 413 388
3 693 174 220
3 727 363 715
3 171 217 692
3 690 703 691
3 691 679 690
3 608 365 619
3 220 680 692
3 524 200 513
3 666 679 667
3 667 655 666
3 475 77 463
3 174 681 126
3 272 705 318
3 664 156 158
3 156 205 158
3 418 634 394
3 704 220 692
3 614 402 379
3 402 626 379
3 366 318 316
3 208 677 689
3 164 678 211
3 411 630 642
3 411 386 630
3 655 667 73
3 76 27 656
3 644 27 76
3 656 668 76
3 657 644 76
3 316 318 705
3 125 657 76
3 81 657 126
3 125 126 657
3 81 31 657
3 572 319 295
3 152 775 154
3 152 154 751
3 260 554 284
3 284 567 260
3 35 634 418
3 579 578 591
3 579 591 333
3 418 393 417
3 417 645 418
3 640 628 59
3 59 652 640
3 489 104 476
3 54 451 80
3 572 293 584
3 572 560 293
3 549 561 273
3 344 596 368
3 49 50 438
3 197 198 512
3 148 487 124
3 124 487 475
3 175 513 151
3 440 30 54
3 30 440 431
3 177 200 525
3 177 513 200
3 559 560 245
3 491 490 155
3 466 84 57
3 430 11 2
3 275 563 550
3 178 514 502
3 321 597 322
3 245 547 559
3 547 245 221
3 597 598 322
3 597 610 598
3 106 490 478
3 30 451 54
3 458 66 92
3 458 40 66
3 82 452 465
3 603 356 615
3 333 356 603
3 573 295 585
3 228 203 227
3 550 228 227
3 106 130 490
3 130 502 490
3 82 466 453
3 502 153 178
3 295 573 561
3 177 501 513
3 129 501 153
3 177 153 501
3 476 80 464
3 52 464 80
3 249 537 549
3 537 525 200
3 273 249 549
3 478 84 466
3 563 275 574
3 130 129 153
3 477 82 465
3 26 49 438
3 203 514 526
3 120 667 169
3 169 171 120
3 203 526 227
3 50 450 28
3 297 321 322
3 45 749 737
3 45 761 749
3 463 77 49
3 102 101 488
3 585 319 596
3 319 585 295
3 464 78 102
3 165 507 189
3 209 517 529
3 209 529 541
3 344 585 596
3 403 738 726
3 432 441 33
3 440 54 452
3 523 221 197
3 268 571 559
3 268 559 547
3 760 226 772
3 799 48 339
3 12 431 4
3 426 12 4
3 464 450 78
3 603 358 592
3 439 12 28
3 453 33 441
3 30 52 451
3 198 175 512
3 485 472 119
3 496 485 119
3 20 435 1
3 482 116 92
3 495 140 507
3 140 495 116
3 429 435 22
3 435 446 22
3 148 499 487
3 148 173 499
3 358 335 311
3 508 520 167
3 167 520 214
3 512 173 197
3 173 523 197
3 512 499 173
3 625 0 638
3 0 649 638
3 579 567 284
3 566 577 306
3 306 577 590
3 245 560 246
3 246 560 271
3 500 488 499
3 643 414 413
3 413 414 619
3 751 739 738
3 738 739 359
3 509 144 168
3 509 168 192
3 246 222 245
3 222 246 536
3 572 271 560
3 27 644 632
3 340 607 365
3 572 584 319
3 365 607 388
3 99 463 462
3 462 449 448
3 120 73 667
3 578 283 306
3 583 571 570
3 5 650 53
3 100 53 650
3 243 535 219
3 404 380 626
3 595 317 340
3 584 317 595
3 687 248 688
3 675 687 688
3 631 388 618
3 99 123 124
3 737 725 396
3 739 751 63
3 523 195 535
3 195 219 535
3 449 462 463
3 838 251 828
3 251 128 828
3 583 340 317
3 243 219 546
3 346 79 846
3 579 284 578
3 494 161 506
3 186 506 161
3 458 445 40
3 605 336 360
3 583 594 340
3 386 362 385
3 386 385 630
3 653 65 641
3 498 510 511
3 577 566 281
3 97 486 474
3 64 457 444
3 487 488 101
3 654 65 112
3 665 112 65
3 1 435 429
3 606 386 618
3 383 406 628
3 449 49 26
3 2 426 425
3 195 522 219
3 461 97 74
3 570 571 268
3 556 287 264
3 556 264 544
3 99 462 474
3 99 474 123
3 787 56 800
3 99 475 463
3 11 426 2
3 6 836 844
3 302 188 829
3 188 839 829
3 494 114 113
3 267 268 243
3 314 593 338
3 24 429 436
3 579 333 309
3 473 461 72
3 429 24 9
3 243 546 267
3 268 267 570
3 17 641 65
3 65 654 17
3 593 362 338
3 437 9 24
3 24 46 437
3 448 449 26
3 498 124 123
3 219 534 546
3 360 617 605
3 170 522 510
3 386 411 618
3 629 383 628
3 727 310 359
3 471 92 116
3 570 267 290
3 582 570 290
3 67 325 817
3 20 1 7
3 146 170 510
3 664 665 653
3 498 146 510
3 146 498 123
3 496 168 144
3 816 48 799
3 544 545 216
3 544 264 545
3 72 472 473
3 215 830 320
3 544 216 532
3 146 486 497
3 581 312 336
3 545 557 241
3 577 329 590
3 353 590 329
3 312 288 287
3 518 186 210
3 518 506 186
3 436 43 44
3 772 784 421
3 580 311 287
3 286 814 162
3 409 385 617
3 385 605 617
3 533 216 545
3 121 144 497
3 401 51 403
3 545 264 557
3 264 288 557
3 582 290 314
3 264 287 288
3 5 639 626
3 312 311 335
3 509 192 521
3 533 521 192
3 94 471 483
3 191 216 192
3 139 482 114
3 567 568 555
3 604 406 383
3 309 580 568
3 309 568 567
3 240 332 785
3 332 240 773
3 785 332 25
3 121 473 485
3 497 144 509
3 457 39 444
3 191 214 532
3 94 484 460
3 533 534 521
3 497 486 121
3 97 121 486
3 123 486 146
3 486 123 474
3 816 215 320
3 473 472 485
3 168 191 192
3 629 409 617
3 473 97 461
3 473 121 97
3 461 44 72
3 314 569 581
3 581 593 314
3 677 158 689
3 158 677 665
3 581 569 288
3 447 44 461
3 288 569 557
3 702 211 208
3 208 211 678
3 521 534 522
3 534 219 522
3 761 773 240
3 749 401 737
3 170 497 509
3 497 170 146
3 509 521 170
3 558 267 546
3 687 699 248
3 711 248 699
3 656 73 120
3 51 401 749
3 290 267 558
3 386 606 362
3 679 169 667
3 68 654 115
3 247 339 786
3 45 737 396
3 643 413 23
3 690 164 211
3 654 68 642
3 775 247 786
3 703 261 308
3 703 690 261
3 629 628 640
3 800 56 320
3 679 164 690
3 787 350 257
3 21 642 68
3 21 411 642
3 265 266 217
3 205 689 158
3 774 339 247
3 666 164 679
3 651 59 10
3 655 23 21
3 217 171 169
3 520 189 531
3 520 531 214
3 553 566 258
3 258 542 553
3 691 217 169
3 217 691 265
3 169 679 691
3 727 359 739
3 664 158 665
3 814 796 137
3 814 137 828
3 270 421 795
3 795 421 784
3 738 403 750
3 17 642 630
3 840 831 234
3 79 840 234
3 830 215 234
3 325 800 320
3 703 308 310
3 152 247 775
3 714 726 308
3 67 800 325
3 800 67 787
3 713 725 352
3 762 152 750
3 56 786 48
3 255 205 252
3 320 56 48
3 255 252 301
3 152 751 750
3 827 838 137
3 38 760 45
3 208 689 701
3 359 726 738
3 750 751 738
3 762 247 152
3 396 725 348
3 339 798 799
3 352 355 305
3 798 302 799
3 785 25 798
3 188 302 815
3 302 798 815
3 160 838 837
3 725 737 352
3 25 332 13
3 25 13 286
3 772 328 773
3 814 286 797
3 773 328 332
3 773 760 772
3 714 305 355
3 702 305 714
3 566 553 281
3 292 244 698
3 292 698 710
3 328 797 332
3 13 332 797
3 13 797 286
3 839 845 846
3 48 816 320
3 201 234 215
3 302 816 799
3 816 302 829
3 844 836 843
3 831 817 830
3 839 188 162
3 844 848 87
3 87 848 346
3 201 846 79
3 815 798 25
3 844 87 160
3 36 844 160
3 201 215 829
3 128 839 162
3 286 188 815
3 188 286 162
3 838 111 837
3 828 162 814
3 346 846 845
3 128 162 828
3 726 714 355
3 629 641 409
3 401 403 355
3 143 762 51
3 812 813 795
3 143 51 749
3 405 223 233
3 700 688 248
3 712 700 248
3 248 711 712
3 649 661 662
3 252 712 724
3 796 328 421
3 812 111 813
3 713 305 701
3 748 736 747
3 305 713 352
3 761 143 749
3 143 761 240
3 641 629 640
3 676 156 664
3 676 664 652
3 770 122 758
3 653 641 640
3 725 713 301
3 202 824 810
3 760 38 226
3 117 206 213
3 117 757 206
3 301 713 255
3 358 604 335
3 567 579 309
3 626 402 5
3 131 226 38
3 111 838 827
3 759 218 771
3 783 771 218
3 150 687 675
3 759 771 131
3 270 795 813
3 270 813 827
3 226 131 771
3 770 213 782
3 675 663 150
3 844 36 6
3 107 663 675
3 292 722 341
3 292 710 722
3 638 649 650
3 662 650 649
3 270 796 421
3 796 270 137
3 206 757 769
3 61 6 825
3 6 36 825
3 343 723 711
3 137 838 828
3 784 772 226
3 795 783 412
3 812 795 412
3 251 160 845
3 160 87 845
3 128 251 845
3 721 733 734
3 843 848 844
3 356 333 591
3 769 781 206
3 627 615 404
3 613 625 614
3 826 111 242
3 827 813 111
3 556 544 262
3 260 567 555
3 784 226 771
3 783 315 412
3 783 218 315
3 782 307 405
3 242 111 812
3 650 662 100
3 196 698 244
3 836 824 32
3 837 111 826
3 825 811 233
3 122 218 759
3 122 759 29
3 307 206 781
3 793 307 781
3 289 721 710
3 233 61 825
3 213 206 307
3 412 794 242
3 150 674 199
3 733 745 14
3 745 757 14
3 315 218 770
3 770 218 122
3 223 405 793
3 722 721 734
3 721 722 710
3 810 824 61
3 117 18 14
3 793 781 395
3 334 733 721
3 794 782 405
3 233 794 405
3 810 61 223
3 793 202 810
3 202 793 395
3 223 793 810
3 674 150 103
3 117 14 757
3 389 341 722
3 389 722 734
3 389 390 341
3 196 147 686
3 389 734 18
3 196 686 698
3 294 343 711
3 699 294 711
3 8 639 55
3 639 53 55
3 214 531 238
3 590 353 354
3 746 389 18
3 389 746 390
3 244 699 199
3 699 244 294
3 103 55 53
3 494 506 139
3 260 543 554
3 260 237 543
3 94 69 471
3 116 495 483
3 444 434 37
3 456 444 37
3 113 493 494
3 493 161 494
3 543 237 212
3 94 460 70
3 237 555 238
3 580 556 568
3 568 556 262
3 309 592 580
3 471 459 92
3 40 445 20
3 446 70 22
3 592 311 580
3 311 592 358
3 356 591 602
3 532 238 262
3 238 532 214
3 358 603 616
3 616 603 615
3 627 616 615
3 604 616 406
3 616 604 358
3 457 64 90
3 331 354 602
3 354 331 590
3 591 331 602
3 379 602 354
3 354 614 379
3 518 530 519
3 331 591 578
3 577 281 304
3 235 554 543
3 161 517 186
3 209 186 517
3 304 329 577
3 614 625 402
3 625 638 402
3 140 163 507
3 212 519 530
3 519 212 189
3 331 578 306
3 306 590 331
3 554 235 258
3 235 542 258
3 541 553 542
3 209 541 542
3 114 470 90
3 1 9 2
3 210 542 235
3 9 1 429
3 39 40 19
3 237 531 212
3 446 445 459
3 66 470 92
3 519 189 507
3 210 235 530
3 64 444 456
3 531 237 238
3 428 19 7
3 457 470 66
3 39 457 66
3 494 139 114
3 40 20 19
3 40 39 66
3 484 94 483
3 19 428 434
3 114 90 113
3 7 19 20
3 444 19 434
3 19 444 39
3 43 436 22
3 496 119 508
3 22 436 429
3 508 167 496
3 235 543 530
3 90 470 457
3 459 69 446
3 472 460 484
3 142 495 165
3 495 142 483
3 168 496 167
3 119 142 508
3 70 43 22
3 212 530 543
3 142 165 508
3 520 508 165
3 530 518 210
3 69 94 70
3 191 168 167
3 165 495 507
3 214 191 167
3 70 460 43
3 460 72 43
3 72 460 472
3 69 70 446
3 518 163 506
3 163 139 506
3 119 484 142
3 483 142 484
3 471 116 483
3 189 520 165
3 519 507 163
3 163 140 139
3 519 163 518
3 140 482 139